<?xml version="1.0" encoding="utf-8"?>
<!-- Generator: Adobe Illustrator 19.1.0, SVG Export Plug-In . SVG Version: 6.00 Build 0)  -->
<svg version="1.1"
	 id="svg2" xmlns:dc="http://purl.org/dc/elements/1.1/" xmlns:rdf="http://www.w3.org/1999/02/22-rdf-syntax-ns#" xmlns:cc="http://creativecommons.org/ns#"
	 xmlns="http://www.w3.org/2000/svg" xmlns:xlink="http://www.w3.org/1999/xlink" x="0px" y="0px"
	 viewBox="-315.3 188.4 184.7 184.1" enable-background="new -315.3 188.4 184.7 184.1" xml:space="preserve">
<path id="mainsymbolpath" fill="#FFFFFF" enable-background="new    " d="M-223,365.4c15.9,0,34.7-2,43.1-11.2
	c6.3-6.8,8-19.4,7.8-27.8c-3.4-4.8-19-17.6-50.9-17.6s-47.5,12.9-50.9,17.6c-0.2,8.4,1.5,20.9,7.8,27.8
	C-257.7,363.4-238.9,365.4-223,365.4z M-247.4,331.7c0,8.2,0.8,15.5,4.9,15.5s4.9-7.1,4.9-15.3c0-8.2-0.2-15.3-4.6-15.3
	C-246.8,316.6-247.4,323.5-247.4,331.7z M-198.6,331.7c0,8.2-0.8,15.5-4.9,15.5s-4.9-7.1-4.9-15.3c0-8.2,0.2-15.3,4.6-15.3
	C-199.2,316.6-198.6,323.5-198.6,331.7z M-308.3,284.6c0,5.7,0.6,10.6,1.7,15c13.6-10.7,21.3-41.2,13.7-63.8
	C-303.4,252.6-308.3,271.6-308.3,284.6z M-278.6,338c-15.8-5.8-36.7-19.3-36.7-53.4s28.1-96.2,92.3-96.2s92.3,62.2,92.3,96.2
	s-20.9,47.5-36.7,53.4c-2.1,25-21.4,34.5-55.6,34.5S-276.5,363-278.6,338z M-153,235.8c-7.7,22.5,0.1,53,13.7,63.8
	c1.1-4.3,1.7-9.3,1.7-15C-137.7,271.6-142.6,252.6-153,235.8z M-223,202c-24,0-43.5,18.9-43.5,42.2s19.5,42.2,43.5,42.2
	s43.5-18.9,43.5-42.2S-199,202-223,202z"/>
</svg>
