<?xml version="1.0" encoding="utf-8"?>
<!-- Generator: Adobe Illustrator 19.1.0, SVG Export Plug-In . SVG Version: 6.00 Build 0)  -->
<svg version="1.1" xmlns="http://www.w3.org/2000/svg" xmlns:xlink="http://www.w3.org/1999/xlink" x="0px" y="0px"
	 viewBox="0 0 500 500" enable-background="new 0 0 500 500" xml:space="preserve">
<g id="Layer_1">
</g>
<g id="Layer_2" display="none">
	<polygon display="inline" fill="#D84141" points="500,200 300,200 300,0 200,0 200,200 0,200 0,300 200,300 200,500 300,500
		300,300 500,300 	"/>
</g>
<g id="Layer_3" display="none">
	<g display="inline">
		<rect y="166.7" fill="#D84141" width="500" height="166.7"/>
		<rect y="0" fill="#232323" width="500" height="166.7"/>
		<rect y="333.3" fill="#FFFF5C" width="500" height="166.7"/>
	</g>
</g>
<g id="Layer_4">
	<g transform="translate(1.72,0.97)">
		<rect x="-1.7" y="249" fill="#43D162" width="500" height="250"/>
		<rect x="-1.7" y="-1" fill="#FFFFFF" width="500" height="250"/>
		<path fill="#D84141" stroke="#000000" d="M325.5,125.1C325.5,125.1,325.5,125.1,325.5,125.1C325.5,125.1,325.5,125.1,325.5,125.1
			L325.5,125.1z M325.5,125.2c-30.6,16.9-57.9,34.5-84.8,56.9c-12.9,11.3-9.3,20.3-9.8,30.4c0.4,6.8-1.5,13.1-5.6,16.9
			c-9.6,1.9-19.1,3.9-28.7,5.8c-0.9-2.6-1.8-5.3-2.7-7.9c0.9-4.1,4.2-6.1,11.3-3.5c0.6-5.2-3.6-7.3-8.6-9.2
			c-1.7-1.3-3.8-2.3-3.5-6.8c-0.8-10.2,15.6,0.7,15.7,0.7c0.2,0-0.5-10.3-8.1-12.4c-4.1-1.5-5.8-5.8-4.3-9c3.3-6.6,9.5,0.5,14.2,0.8
			c-0.2-4.3-1.4-7.3-5.1-10.8c-2-1.2-6.9-2.1-7-4.2c-0.1-2.8,4.6-4,11-3.2c-1.3-3.9-5.7-6.4-11.6-8.2c-1.2-2-2.3-4.1-3.5-6.1
			c-1.7-3.1-2.4-3.2,1.4-9c3.5-2.2,8.1-5.4,11.5-7.6c-1.3-0.2-2.5-0.3-3.8-0.5c0.5-4.2,0.6-5.6,1.5-12.5c-3.7,5.1-8.3,4.2-12.5,6.3
			c0,0-11.9,2.1-15.7,7.2c-0.2,0-29.9-1.5-29.9-1.5c-6.3,0.9-11.8,2.7-12.8,8.8c-14.5,1.5-29.7,0.2-40.7,14
			c7.5-0.4,14.1-2.1,22.6-1.1c0,0,7.2,0.1,8.7,7.8c0.2,0.3,2.4,0.3,2.4,0.3c0.9,0.7,1.8,1.4,2.7,2.1c0.4-1,0.7-1.9,1.1-2.9
			c0.8,0.6,1.6,1.1,2.4,1.7c0.3-1.1,0.5-2.1,0.8-3.2c0.8,0.6,1.6,1.1,2.4,1.7c0.1-1.3,0.1-2.5,0.2-3.8c1.1,0.8,2.1,1.5,3.2,2.3v-5
			c0,0,11.8,0,15.4,7.5c0.2,0.2-33.1,6.1-65.3,3.4c3.1-1.5,6.2-3.1,9.3-4.6c-11.7-2.4-22.8-4.5-33.1-12.7
			c3.9,14.7,24.1,32,28.2,31.9c0,0.2-4-7.2-4-7.2c11.6,0.5,23.3,1,34.9,1.5c1.3,3.9,0.7,8.2,3.8,11.6c0,0-1.9,6.4,2.4,9
			c0.2,0.3,5.1-13,5.1-13s1.5,3.6,3.1,5.9c2.2-11.4,14.6-13.3,14.6-13.3s2.6,6,2.6,6.1c-3.9,0.6-8.7,8.5-6.1,12.8
			c-2.6,0-7.2,7.7-5.8,11.9c-2.2,2.2-7.6,5.1-6.3,14.2c-4.3,0.9-6.8,8.8-5.5,17.1c-6.6,6.2-5,17.5,0.9,22.1c-2.5,2.2-4,3.9-4,6.6
			c-2.3-0.9-4.5-0.1-5.5,1.4c-2.9-2.9-7-5.5-9.9-2.8c-0.8-3.5-5.3-7.3-10.2-6.9c0.3-3.7-1.6-8.2-6.9-9.8c0,0-1.1-17.2-6.3-22.7
			c-0.5-3.1,0.3-5.2,4.6-7.8c4.3-2.3,5.2-4.1,4.9-10.5c1.7-4.3,3-8.7-2.3-11.7c0.2,5.1-1.4,7.6-3.5,9.9c-2.5-0.4-3.4,2.5-5,3.8
			c-2.3-3.2,5-8.1-0.5-15.1c-0.3-0.3-3.8-9.2-12.4-9c4.1,2.4,5.8,6.4,5.8,10.5c-2.7,7.6-4.1,13.5-1.4,22.3
			c-3.6-5.3-5.6-15.5-8.5-17.3c-2.6-0.5-3.8-6.6-13.9-4.9c4.3,1.2,5.7,4.5,6.9,7.5c-2.7,1.4-1.3,5,0.6,7.5
			c-0.4,5.9,3.1,9.3,8.4,11.5c-0.9,8-1.7,16-2.6,23.9c-2.1-0.3-5.3,7.9-6.6,8.1c-2,1.3-5.6,4.7-1.5,5.6c-1.2,4.4-2.3,7-8.9,7.9
			c0,0,6.9,4.1,12.6-2.9c6.1-0.2,4.1-7.5,7.1-10.7c0-0.2,1.7-1.2,4.1-7.6c1.1,5.7,7,23.3,20.3,32.1c11.6,12.4,21.2,24.2,21.1,40.7
			c4.5-4.2,7.2-10.9,9.3-17.3c6.3-2.2,15.3-3,23.4-2.7c-1.4,2.9-2.9,5.7-0.9,7.6c-5.6,1.9-6.8,6-4.6,10.1c-5.9,4-6.3,6.6-6.4,13.3
			c-10.9,14-17.7,13.6-28.5,9.9c-3.6-2.1-9.1-5.1-11.6-3.5c-4.7-3.1-11.4-3.6-12.5,3.5c3.5-2.9,5.6-2.3,8.4,0.5
			c-0.6,1.4-1,2.8,1.1,3.7c-0.9,1-1.8,2-2.7,3.1c-5-0.8-11.8-0.7-13.6,6.6c2.6-2.1,8.3-2.6,13-0.6c0.9,0.3,1.7,0.6,2.6,0.9
			c0.1,1.2,0.2,2.3,0.3,3.5c0,0-6.9-1.1-8.7,10.1c6.4-6.8,11-5,11-5c2.5,3.6,11.6,3.1,18.2-2.9c9.2-5.2,11.9,2.3,17.9-2.6
			c4.9-3.7,10.8-1.2,14.8,3.1c4.6,1.7,9.5,3.2,13.3,0c0,0,4.7-3,9.3,1.8c0.1-5.4-3.8-8.3-9-8.4l-1.5-1.5c-4.9-1-10.4-0.6-14.6-3.1
			c2-7.6,4.9-14.6,10.7-20.5c7.1-7.6,12.3-11,21.2-22.6c-0.3,6.6,4.7,13.8,7.3,20.5c0,0,5.3-8.5,6.1-15.4c0.2,0,6.7-3.4,9.5-6.3
			c5.9,3.6,15.5-2.9,21.7-8.4c3.8,1.4,6.7,1.3,11.1,0c-3.6,7.2,2.1,14,11,16.8c0.8,6.4,7.3,7.7,17.1,7.8c0.4,3.8,6.3,4.3,6.3,4.3
			c-3.7,1.7-5.6,3.4-5.5,7.3c-3.8,0-6.6,1-7.6,5.3c-5.2,0.1-10.5,0.5-15,3.1c-4.8-0.7-10.6-2.7-14.3-6.6c-1.9-1.6-2.4-4-5.8-4.9
			c-2.1-2.5-4.7-2-5.5,0.5c-2.2-1.7-10.5-2.5-11.9,5.3c3.9-2.8,7.3-3.9,9.8-0.5c-1.3,2.4,3.2,3.8,7.2,4.7c2.8,0.2,7.7,2.7,9.3,7
			c-3.6,1.1-9.1,0.7-12.7-2c-3.2-2.7-7.5-2.4-9.9-0.6c-3.3-2.1-11.2,1.9-11.5,8.2c3.3-3,6.3-4.5,9.3-2.6c-1.5,0.4-0.9,0.5-0.8,1.4
			c2.5,1.5,5.1,2.9,7.6,4.4c-3.7,1-7.3,2.5-5.6,9.4c0,0,3-6,9.9-3.8c0.2-0.2,0.9,2.2,2.9,0.6c3-3.4,9.8-4.9,15.7-5.5
			c4.8-0.6,9.6-2,13.7,0.7c3.7-1.9,7.8-3.2,12.1-0.1c5,1.6,8.6,7.4,15,4.7c3.1-2.2,7-2.3,11,2.1c0-5.6-4.1-7.5-10.1-8.7
			c-1.4-0.8-2.7-1.6-4.1-2.4c-3.8-0.6-7.6,0.1-11.5-1.7c20-5.2,34-16.3,43.8-32.2c3.2,1.1,6.3,2.2,9.4,3.3c2.2,0.1,2.4,0.9,7,2.3
			c0.2-6.8-2.7-13.8-15-14.5l-16-6.1c-3.4-3.6-4.9-11.2-0.6-15.7c4.2-3.8,5-3.3,7.8-7.9c3.4-0.3,6.6,3.2,9.8,3.2
			c1.5,4.4,10.1,8.4,15.6,7c3.4,3,9.9,4.7,17.1,2.3c4.1,3.5,9.3,5,15.6,2.3c1.7,1.7,5.1,3,9.2,2.1c0.3,0,2,4.4,6.4,6
			c-1.9,1.9-0.7,9.9,1.2,12.8c-1.3,3.1-1.8,6.4-0.6,9.6c-4.4,2.8-5.3,5-3.3,9.8c-5.8,9.3-12.7,10.4-19.2,7.5c-2.3-1.5-4.7-3-7-4.4
			c-2.5-2.4-5-4.9-7.5-7.3c-1.3-1.2-3.9-1.6-4.4,1.1c0,0-9.6-2.1-10.4,6c4-3.9,9.6-0.5,9.6-0.3c0,0.2-1.3,1.1-0.3,2.6
			c0.2-0.2,7,2.5,13,5.1c3.3,1.2,4,1.6,5.4,2.4c-1.6-0.7-3.4-1.5-5.4-2.4c-3.7-1.4-7.2-2.5-8.3-2.2c-3.4-0.3-7-0.7-8.7,1.8
			c-3.7,1.6-9.4,2.8-9.2,9.6c2.5-4.1,5.9-3.9,10.2-3.5c-0.1,0.3-0.2,0.6-0.3,0.9c4.7,2.1,3.8-0.6,8.2-1c3.7-0.3,8.9,1,11.6,1.9
			c-3.5,1-8.2,0.6-10.4,3.1c-0.4,0.8-1.8,0.5-1.2,2.4c0,0-6.7-0.2-8.6,9.2c6.9-4.4,12.1-4.3,12.2-4.3c0.2,0,2.1,0.5,2.1,0.5
			s8.2-5.5,8.4-5.5c0.2,0,8-3.5,11.6,0.5c3.2,1.5,6.5,1.6,9.8-0.3c6.4-2.8,12.4-3,18.3,0.9l5.3,3.2c0.8-0.5,1.5-1,2.3-1.5
			c0,0,6-1.7,10.5,3.7c-1.8-9.3-8.5-9.6-8.5-9.6c-0.5-0.5-1-0.9-1.5-1.4c-3.2-1.2-6.3-2.5-9.4-3.7c-1.4-3.4-4.8-6.1-1.4-10.2
			c3.5-17.5,7.7-30.6,0.9-48.4c6.4,2.7,11.1,11.2,19.1,8.2c0-7.1-26.2-20.6-46.2-31.5c32.8-1.7,72.2-25.9,57.1-56.7
			c2.4-7.4,4.8-14.9,7.2-22.3c3.4,6.8,10.2,12,16.3,14.2c-5.1-9.6-8-39.1-5-59.5c-13.2,16.3-27.8,30.8-43.3,45.5
			c7.6,1.8,14.3,0.5,21.7-0.4c-2.1,4.3-4.1,8.6-6.2,12.8c-20.2-11.8-43.8-2.9-44,12.8c0.7,18.4,23.4,21,36.5,14.6
			c-2.6,16.8-41.1,10.6-41.1,10.6c-13.7-4.7-26.7-3.9-41-3.8c3-9.2,19.6-17.3,32.2-13.7c-17.7-19.8,2.5-44.5,26.8-52
			c-26.5-8.8-3.7-29,16.2-43.5c0,0-57.1,24-62.3,24C314.9,154.7,319.3,135.5,325.5,125.2L325.5,125.2z M146.2,148.2
			c1.3,0,2.9,0.1,4.1,0.4c2.6,0.6,5.7,1,5.7,1.8c-1.2,2-4.1,4.4-7,4.3c-2.9-0.1-4.5-1.9-5.5-6.2
			C143.8,148.3,144.9,148.2,146.2,148.2z M386.7,216c3.7-0.1,8.2,1.5,12.6,6.2c-2.1,6.1-20.4,9.2-21.6,0.2
			C377.3,219.7,381.2,216.1,386.7,216L386.7,216z"/>
		<path fill="none" stroke="#000000" stroke-width="1.0527" stroke-linejoin="round" d="M165.1,201.3l2.8,4 M167.7,205.4
			c0,0,0,5.4,1.1,5.5 M166.4,213.9c0.1,0.1,2.9,4.8,2.9,4.8 M161.3,219.9c0.1,0,3.5,3.9,3.5,3.9 M167.8,220.8c0,0.1,3.2,6.2,3.5,6.2
			 M163.6,224.9c0,0,1.1,7.3,2.1,7.1 M158.8,238.3l3.2,4.9 M164.8,233.1c0,0,1.8,6.9,3.1,6.3 M169.4,229c0.1,0.1,3.3,4.7,4.2,4
			 M172.8,234.8l3,6 M167.7,239.4c0.1,0.3,2.5,7.2,2.5,7.2 M162,243.1c0,0,2.3,7.7,4.3,6.4 M161.1,253.3c0,0,0.1,4,2.1,4.3
			 M164.6,251.3c0,0.1,2,2.9,2,2.9 M170.4,246.5l1.7,2.7 M175.7,241.6l2.5,3.1 M164,205.4c0.1,3.4,5.5-1.2,7.7-4.1 M161.7,217.3
			c0,0,5.9-4.2,10.5-10.5 M159.8,227.2c4.2-1.1,11.8-10.4,13.3-15.3 M158.9,236.4c1.1,0.5,15.4-9.8,15.8-17.3 M158.5,244.3
			c0-0.1,13.1-3.3,18.5-17.7 M157.8,255.2c0,0,20.9-12.5,22-21.7 M320.7,276.2c0,0-1.3,10.8-12.2,12.4 M324.1,295.5
			c0.1-0.1,10.3-11.3,7.7-14.7 M347.7,284.6c0,0-0.1,7.8-6.5,13.2 M360.5,286.9c0,0,0.3,9.4-3.8,13.2 M372.2,292.6
			c0,0-4.5,8.8-6.2,9.7 M372,308.3c0,0,5.9,1.5,7.8-2.4 M373.5,321.1c0,0,5.5,1,8-4.3 M372.9,331c0,0,4.4,3.7,7.5-1.2 M309.1,258.2
			c0,0-0.5,19.1,26.5,23c30.1,8.3,44.3,3.9,46.1,37.7c-1.1,12.8-2.7,27.4-12.1,21.8 M280.5,275.8c0,0,4.3,7.7,9.4,7.2
			c6.8-2,9.3,2.1,9.3,2.1 M262.1,283.5c0,0,11.3,5.5,21-3.4 M263.4,275.6c1,13.2-15.2,20.8-21.7,19.5 M264.1,326.3
			c0.1,0,8.8-5.2,7-8.9 M246.9,318.5c0.3-0.3,14.6-1.6,17.3-6.8 M240.2,297.4c0-0.1,20.4,0.1,21.8,3.8 M267.3,285.3
			c0,0-19.9,34,16.9,34 M246.2,284.8c0,0-4.3,12.7-10.3,17 M225.1,280.4c0,0,7.4,14.3,0,21.4 M205.8,284.4
			c0.1,0.3,2.4,20.3-2.6,25.9 M196.2,285c0,0,0.8,12.7-3,17.3c-3.8,4.5,0.9,14,0.9,14 M148.2,322.4c0,0,2.7,4.7,6.5,3.1 M152.8,312
			c0,0,6,2.6,8.1,1.6 M159.3,290.6c0,0-8.9,2.5-5.5,13.1c5.2,4.2,10.2,3.5,10.2,3.5 M141.7,335.5c-0.1,0,1,8.3,6.8,2
			c4-8.4,16.8-32.2,19.6-40.4 M174.1,293.2c0,0-6.2-4.8-5.9,1.9c-0.1,4.2,1.9,5.2,1.9,5.2c0.3,3,2.9,7.3,5,3.4
			c0.9-3.8-0.6-5.4-0.6-5.4 M178,291.5c-5.5-0.4-8.6,11.8,2.1,4.2 M183.8,287.3c0,0-1.4,1.9-3.5-0.1c-1.1-2-5.2,9.1,1.9,9.4
			c1.3-3.3,5.2-4.2,5.2-4.2 M190.6,282c0,0-3.1,1.5-4.3,1.3c-3.8,0.9-3,9.7,1.8,9.2c1.6-1.9,3.4-4.5,3.4-4.5 M160.9,270.5
			c-0.1,0-12.5,19.5,6.9,24.6 M317.9,241.2c0,0-7.6,6.4-0.5,16.8c-23.4-0.4-36,10.5-37,17.8c-29.9-2.1-24.4,6.7-34.1,9.6
			c-13-10.8-32-4.8-30.7,6c-8.7-12.2-22-6.3-23.7-3.3c-1.6,3-1-15-1-15s-8.7,3.9-14.7,11.1c0.1-4.8,0-12.6,0-15.1
			c-7.3,1.5-14.3,1.6-21.8,1.4 M134.6,264.9c0,0,10.8,6,24.2-2.1 M133.7,243.1c0,0,8.4,7.6,24.3,5.2 M139,225.7c0,0,1.9,6.2,20,6.5
			 M145.2,211.4c0,0,6.8,8.4,16,7.1 M151,199.5c0,0,2.6,4.5,12.7,5.3 M156.9,186.3c0,0,5.3,5.8,11.3,4.8 M188.4,139.2
			c0,0,2.3-2.3,6.2-1.2 M186.7,151.6c0,0-7.3-0.3-6.8-3.1c0.5-3.3,7.7-5.6,7.7-5.6s9.5-6.1,10.9-8.2 M155.6,168l9.2,17.7l4.4-6.6
			l2.3,4.6l3.8-6.6l6.5,4.2l-2.5-8.1l5.5-0.4c0,0-1.4-3.9-6.4-4.7c1.3-1,5.9-4,5.9-4s-2.6-3-6.6-3.1c1.3-1.4,3.1-4.9,3-4.9
			c-0.1,0-4-0.9-4-0.9s9.2,3,16.4-1.2 M175.4,139.5c0.1,0.1-0.5,3.6-2.5,5.7 M139.7,149.2c0,0,5.7-1.6,10-0.7
			c4.2,0.9,9.9,2.4,9.9,2.4s6.8-0.9,9-2.5 M125.5,153c0,0-0.8,2.7-1,4.6c0,1.3-4.2,3-4.2,3 M128.1,147.4c0,0,3.6,4.6,3.8,7.2
			c0.1,2.6-2.7,4.6-2.7,4.6 M90.5,178.5l-3.8-6.1l3.4-1.2 M158.7,262.9c-3-3.9,2.3-63.9,13.5-79.5c-3.9,28.2,9.1,57.1,12.3,56.9
			 M124.6,166.6c0,0,5.1,2,15.7-6.4 M154.6,180.5l7.6,0.1 M390,133.5c0,0-126.4,59.1-128.3,62.2c21.4-6.4,111.9-21.5,114.1-20.2
			c-5.3,1.3-115.2,26.5-120.4,32.6c27.4-0.9,84.9,8.8,93.9,18.2c-19.5-4.4-77.9-13.1-95.7-9.2c13.1,3.1,63.1,35.5,63.1,40.7
			c-7.5-7.2-67.7-32-70.1-29.6c13.8,8.3,33.3,39,33.3,46.6c-4-6.4-38.8-43.8-40.9-41.4c3.7,5.2,11,49.3,7.2,51.3
			c0-5.3-13.5-43.9-14.6-45c-2.8,0.7-20,47.1-16.6,51.4c-2.2-15.5,0.4-47.7,4.6-46.4c-7.5,1.1-31.6,32.9-29.1,37.8
			c0.7-7.9,1.8-13.2,15.4-39.5c-15.1,0.9-46.4,20.6-51.7,27.6c4.2-12.5,30.7-33.7,42.3-35.2 M251.3,189.2
			c13.4-7.4,54.7-22.6,82.2-33.7 M225.4,229.1c0,0,9.1-0.1,18.2-24.9c9-33.8,80.2-71.6,81.6-78.6 M104.9,263.2c0,0-2.1,4.5-4.7,5.8
			 M115.1,270c0,0-2.8,5.5-3.5,8.1 M124.9,272.7c0,0,2.4,7.5,0.4,11 M97.7,253.2c-7.2,4,4.1,29.5,38,32 M130.2,271.4
			c0,0-0.9,4.6,5.5,13.7c-1.8,10.2,7.7,18.1,11.5,19.4 M127.5,180c0-0.1,1-2.7,1-2.7l1.2,3l1.9,0l1.2-3l1,3h1.9l1.1-3.4l1.7,3.2
			l1.5,0.1l1.2-3.9l2.4,2.8l0.9-0.3l0.7-3.9l2.4,2.7l0.7-0.4l1.1-3.8l2,2.8l1-0.3l0.9-3.2l1.8,3 M125.4,180.3l14.2-0.2
			c4.5-0.1,12-6.3,20.3-4.4 M95.5,210.7c0,0,2.3,5.1,5.6,2.2 M90,214.1c0,0-4.6,12.2,0.9,15.1 M83.5,200.5c0,0,0,2.9,6-1.6
			 M64.9,264.8c0,0,4.8,1.4,4,5.1 M66.7,208.6c0,0,3,1.4,5.9-3 M98.5,349.4c4.7-0.3,5.7,1.9,10,1.9c4.9,0.1,9.7-1.9,15.9-3.5
			 M164.6,359c-0.1,0-2.2,4.4-0.4,6.6 M97.8,359.4c0,0,7.4-6.1,11.3-2.3c3.8,1.3,5.9,1,5.9,1 M101.7,342c0,0,1.8,4.7-4.3,4
			 M95.6,352.8c0,0,3.9,2.5-0.5,5.7 M97.9,362.9c0,0,5.3,0.8,2.2,5.1 M270.3,330.5c0,0,14.5,1.5,15.2,2.6
			c1.7-1.7,14.6-12.2-1.3-13.7C281.5,330.3,270.5,330.7,270.3,330.5L270.3,330.5z M265.1,337.8c5.4,4.3,3.2,6.9,20.2-4.5
			 M257.4,343.2c0,0,8,8.6,13.8-1.8 M242.1,346.3l-10.8,5.7 M211.8,359.9c0,0,6.6-5.7,9.7-2.7c3.1,3,16.2-2.6,16.2-2.6 M216.7,335.3
			c0,0,2.2,4.5-2.1,5.1 M208.2,349.4c0,0,2.3,4.2-2.1,5.4 M213.2,360.9c0,0,6.8,0.3,4.4,5.5 M277.1,360c0,0-3.7,3.2-1,6.7
			 M331.5,337.3c0,0,4.3,2.1-0.8,5.7 M326.3,350.4c0,0,3.2,3.4,1.1,6.2 M335.4,363.5c0,0,4.5,1.2,4,5 M398.4,360.2
			c0,0-3.7,2.7-1.7,6.3 M331.6,250.7c9-1.1,21.9,18.9,28.5,22.8 M399.5,222.4c0,0,4.6,4,0.5,13.6 M407.9,207.1
			c1.3,1,6.2,3.6,9.4,9.6 M420.4,177.2c0,0.1-6.3,17.1-6.3,17.1 M427.5,176.3c0,0-1.2,15.2-3.1,18.2 M399.3,222.2
			c-2.1,6.1-20.4,9.2-21.6,0.2C377.1,217.8,388.5,210.8,399.3,222.2z"/>
		<path stroke="#000000" stroke-width="1.0527" stroke-linejoin="round" d="M146.1,148.3l7,1.3C153.1,149.6,148.2,156.2,146.1,148.3
			z"/>
	</g>
</g>
</svg>
